<svg id="OBJECTS" xmlns="http://www.w3.org/2000/svg" viewBox="0 0 195 111"><defs><style>.cls-1,.cls-2{fill:#cde8e8;}.cls-1{opacity:0.86;}.cls-3{fill:#53c7b4;}.cls-4{fill:#58c6d8;}.cls-5{fill:#044b5d;}.cls-11,.cls-6{fill:#02687f;}.cls-7{fill:#fff;}.cls-8{fill:#018a9a;}.cls-9{fill:#faf4da;}.cls-10,.cls-12,.cls-13{fill:none;stroke-linecap:round;stroke-miterlimit:10;}.cls-10{stroke:#008196;}.cls-11{opacity:0.74;}.cls-12,.cls-13{stroke:#fff;}.cls-13{stroke-width:0.75px;}</style></defs><path class="cls-1" d="M74.43,108.89l86.58-.24c7.41,0,19.16-3,23.67-8.49,9.65-11.86,16.18-42-16.23-53.77C125.6,30.89,148.12,2.05,110.39,2.05c-38.33,0-27.54,22.1-40.65,23.18a199.07,199.07,0,0,1-20.6.2C37.31,25.07,28,34.72,29.9,45.49a18.59,18.59,0,0,1,.06,8c-2.63,8.89-20.59,4.68-24.2,26.13C3.18,95,15.45,108.89,29.43,108.89Z"/><circle class="cls-2" cx="10.71" cy="47.14" r="8.71" transform="translate(-37.61 48.39) rotate(-78.68)"/><circle class="cls-2" cx="169.45" cy="21" r="15.15" transform="translate(34.79 125.97) rotate(-45)"/><polygon class="cls-3" points="156.4 13.21 156.4 13.21 156.4 13.21 156.4 13.21"/><path class="cls-4" d="M159.58,20.54a15.74,15.74,0,0,0-1.9-5.42,1.11,1.11,0,0,0-1.9,0l-2.38,3.74,2.75,1.76a.49.49,0,1,1-.53.82l-2.75-1.75-1.08,1.7,2.75,1.75a.49.49,0,1,1-.52.82l-2.75-1.75-.83,1.31,2.74,1.75a.49.49,0,0,1,.15.67.48.48,0,0,1-.67.15l-2.75-1.75-1,1.54a5.78,5.78,0,0,1-3,2.4,5.63,5.63,0,0,1-4.88-.56L128.6,19.75l.53-.83,8.78,5.59,3.6-5.66a.51.51,0,0,1-.29-.08l-3.16-2a.49.49,0,1,1,.53-.82l3.15,2a.47.47,0,0,1,.19.23l.94-1.47a.43.43,0,0,1-.29-.07l-3.16-2a.5.5,0,0,1-.15-.67.49.49,0,0,1,.68-.15l3.15,2a.48.48,0,0,1,.19.23l1.18-1.86a.5.5,0,0,1-.29-.07l-3.15-2a.5.5,0,0,1-.15-.68.48.48,0,0,1,.67-.14l3.16,2a.45.45,0,0,1,.19.22l3.24-5.09a.51.51,0,0,0-.31-.77,15.78,15.78,0,0,0-17.37,23.4,7.34,7.34,0,0,0-.71.95L103.1,73.82a7.59,7.59,0,0,0,1.64,10.08A7.47,7.47,0,0,0,115.62,82l26.74-41.95a7.34,7.34,0,0,0,.68-1.34,15.79,15.79,0,0,0,16.54-18.17Z"/><path class="cls-4" d="M85.29,47l-7-1.16a2,2,0,0,1-1.52-1.21l-1.17-2.82a2,2,0,0,1,.22-1.93L80,34.07a2,2,0,0,0-.21-2.58L76.4,28.15a2,2,0,0,0-2.58-.21l-5.76,4.11a2,2,0,0,1-1.92.22L63.31,31.1a2,2,0,0,1-1.21-1.52l-1.16-7a2,2,0,0,0-2-1.67H54.24a2,2,0,0,0-2,1.67l-1.16,7a2,2,0,0,1-1.21,1.52l-2.82,1.17a2,2,0,0,1-1.93-.22l-5.75-4.11a2,2,0,0,0-2.58.21L33.47,31.5a2,2,0,0,0-.22,2.57l4.11,5.76a2,2,0,0,1,.22,1.93l-1.17,2.82a2,2,0,0,1-1.52,1.21l-7,1.16a2,2,0,0,0-1.67,2v4.73a2,2,0,0,0,1.67,2l6.74,1.12a2,2,0,0,1,1.56,1.33A21.26,21.26,0,0,0,37.38,61a2,2,0,0,1-.2,2l-3.93,5.5a2,2,0,0,0,.22,2.58l3.34,3.34a2,2,0,0,0,2.58.22l5.37-3.84a2,2,0,0,1,2-.17,21,21,0,0,0,3.09,1.3,2,2,0,0,1,1.3,1.56L52.26,80a2,2,0,0,0,2,1.67H59a2,2,0,0,0,2-1.67L62,73.49a2,2,0,0,1,1.3-1.56,21.14,21.14,0,0,0,3.1-1.3,1.94,1.94,0,0,1,2,.17l5.38,3.84a2,2,0,0,0,2.58-.22l3.34-3.34A2,2,0,0,0,80,68.5L76,63a2,2,0,0,1-.19-2A21.21,21.21,0,0,0,77,58.08a2,2,0,0,1,1.57-1.33l6.74-1.12a2,2,0,0,0,1.67-2V48.92A2,2,0,0,0,85.29,47ZM56.6,64.43A13.14,13.14,0,1,1,69.74,51.29,13.14,13.14,0,0,1,56.6,64.43Z"/><path class="cls-5" d="M154.37,69.78l-3.15-.53a.89.89,0,0,1-.68-.54L150,67.44a.9.9,0,0,1,.1-.87L152,64a.9.9,0,0,0-.09-1.16l-1.51-1.51a.9.9,0,0,0-1.16-.09l-2.59,1.85a.93.93,0,0,1-.87.1l-1.27-.53a.89.89,0,0,1-.54-.69l-.53-3.14a.9.9,0,0,0-.89-.75h-2.13a.89.89,0,0,0-.88.75L139,62a.89.89,0,0,1-.54.69l-1.27.53a.93.93,0,0,1-.87-.1l-2.59-1.85a.9.9,0,0,0-1.16.09L131,62.82a.91.91,0,0,0-.1,1.16l1.85,2.59a.88.88,0,0,1,.1.87l-.52,1.27a.89.89,0,0,1-.69.54l-3.14.53a.9.9,0,0,0-.75.89v2.12a.89.89,0,0,0,.75.89l3,.51a.88.88,0,0,1,.7.6,9.53,9.53,0,0,0,.52,1.32.87.87,0,0,1-.09.89l-1.77,2.48a.91.91,0,0,0,.1,1.16l1.51,1.51a.91.91,0,0,0,1.16.1l2.41-1.73a.9.9,0,0,1,.92-.08,10,10,0,0,0,1.39.59.88.88,0,0,1,.59.7l.49,2.92a.89.89,0,0,0,.88.75h2.13a.9.9,0,0,0,.89-.75l.49-2.92a.87.87,0,0,1,.58-.7,9.63,9.63,0,0,0,1.4-.59.88.88,0,0,1,.91.08l2.42,1.73a.91.91,0,0,0,1.16-.1l1.51-1.51a.9.9,0,0,0,.09-1.16L150.19,77a.89.89,0,0,1-.08-.89,9.53,9.53,0,0,0,.52-1.32.87.87,0,0,1,.7-.6l3-.51a.89.89,0,0,0,.75-.89V70.67A.9.9,0,0,0,154.37,69.78Zm-12.92,7.87a5.92,5.92,0,1,1,5.92-5.92A5.92,5.92,0,0,1,141.45,77.65Z"/><circle class="cls-6" cx="100.5" cy="31.82" r="19.98"/><circle class="cls-1" cx="100.5" cy="31.82" r="16.05"/><path class="cls-6" d="M99.89,35.13a1.15,1.15,0,0,1-1.07-1.25L99.64,23a.81.81,0,1,1,1.61.12l-.74,9.76,6.23-5.35a.81.81,0,0,1,1.05,1.23l-7.05,6.06A1.17,1.17,0,0,1,99.89,35.13Z"/><path class="cls-6" d="M136.3,80.6H61.68V38.24A2.27,2.27,0,0,1,64,36H134a2.28,2.28,0,0,1,2.28,2.28Z"/><rect class="cls-7" x="64.58" y="39.07" width="68.81" height="38.12" rx="0.39"/><path class="cls-5" d="M61.64,80.6h74.65l12.37,19.65a1.45,1.45,0,0,1-1.24,2.2H51.06a2,2,0,0,1-1.64-3Z"/><path class="cls-8" d="M61.77,80.6h74.55l11.51,18.09a1.33,1.33,0,0,1-1.22,2H51.87a1.8,1.8,0,0,1-1.62-2.78Z"/><circle class="cls-9" cx="98.99" cy="37.47" r="0.7"/><path class="cls-6" d="M116.2,99.31H81.77a1.28,1.28,0,0,1-1.24-1.62l.93-3.47a1.28,1.28,0,0,1,1.24-1h31.9a1.29,1.29,0,0,1,1.17.74l1.6,3.47A1.29,1.29,0,0,1,116.2,99.31Z"/><path class="cls-6" d="M67.85,81.41h62.8a1.32,1.32,0,0,1,1.18.74l4.1,8.56a1.3,1.3,0,0,1-1.17,1.86H63.22a1.3,1.3,0,0,1-1.15-1.92l4.64-8.56A1.31,1.31,0,0,1,67.85,81.41Z"/><line class="cls-10" x1="64.3" y1="83.28" x2="133.67" y2="83.28"/><line class="cls-10" x1="62.97" y1="86.07" x2="135" y2="86.07"/><line class="cls-10" x1="61.65" y1="89.56" x2="135.66" y2="89.56"/><line class="cls-10" x1="94.54" y1="81.41" x2="94.54" y2="92.57"/><line class="cls-10" x1="101.16" y1="81.41" x2="101.16" y2="92.57"/><line class="cls-10" x1="81.95" y1="81.41" x2="79.31" y2="92.57"/><line class="cls-10" x1="88.58" y1="81.41" x2="87.25" y2="92.57"/><line class="cls-10" x1="70.04" y1="81.41" x2="65.4" y2="92.57"/><line class="cls-10" x1="76" y1="81.41" x2="72.68" y2="92.57"/><line class="cls-10" x1="114.4" y1="81.41" x2="117.05" y2="92.57"/><line class="cls-10" x1="107.78" y1="81.41" x2="109.1" y2="92.57"/><line class="cls-10" x1="126.32" y1="81.41" x2="130.95" y2="92.57"/><line class="cls-10" x1="120.36" y1="81.41" x2="123.67" y2="92.57"/><rect class="cls-1" x="70.07" y="43.73" width="15.15" height="12.88" rx="1.97"/><rect class="cls-1" x="95.83" y="43.73" width="32.58" height="30.31" rx="0.62"/><path class="cls-6" d="M128.64,59.1v5.51a1.09,1.09,0,0,1-1.09,1.09h-18a1.09,1.09,0,0,0-1.09,1.09v.85a1.09,1.09,0,0,0,1.09,1.09h20.19a1.09,1.09,0,0,0,1.09-1.09V59.1a1.08,1.08,0,0,0-1-1.08h0A1.08,1.08,0,0,0,128.64,59.1Z"/><path class="cls-6" d="M105.24,67.4l4.29-4.28a.26.26,0,0,1,.44.18v8.24a.26.26,0,0,1-.44.19l-4.28-4A.27.27,0,0,1,105.24,67.4Z"/><rect class="cls-1" x="92.04" y="43.73" width="1.52" height="30.31" rx="0.13"/><rect class="cls-1" x="70.07" y="59.64" width="19.7" height="1.52" rx="0.26"/><rect class="cls-1" x="70.07" y="63.43" width="19.7" height="1.52" rx="0.26"/><rect class="cls-1" x="70.07" y="67.22" width="19.7" height="1.52" rx="0.26"/><path class="cls-4" d="M69,50.51V46.25a.84.84,0,0,1,.84-.84H83.71a.84.84,0,0,0,.84-.84v-.66a.83.83,0,0,0-.84-.84H68.12a.83.83,0,0,0-.84.84v6.6a.83.83,0,0,0,.75.83h0A.84.84,0,0,0,69,50.51Z"/><path class="cls-4" d="M87,44.1l-3.31,3.3a.2.2,0,0,1-.34-.14V40.9a.2.2,0,0,1,.34-.15l3.31,3A.22.22,0,0,1,87,44.1Z"/><rect class="cls-11" x="123.23" y="46" width="53.04" height="15.91" rx="2.68"/><rect class="cls-4" x="120.96" y="43.73" width="53.04" height="15.91" rx="2.68"/><rect class="cls-1" x="138.39" y="49.03" width="31.82" height="1.52" rx="0.57"/><rect class="cls-1" x="138.39" y="53.58" width="31.82" height="1.52" rx="0.57"/><circle class="cls-1" cx="130.05" cy="51.3" r="4.55"/><rect class="cls-3" x="48.95" y="53.58" width="22.76" height="21.97" rx="2.18"/><rect class="cls-11" x="48.95" y="53.58" width="22.76" height="21.97" rx="2.18"/><rect class="cls-11" x="50.47" y="55.09" width="22.76" height="21.97" rx="2.18"/><rect class="cls-7" x="51.22" y="56.61" width="6.82" height="6.58" rx="0.86"/><line class="cls-12" x1="59.77" y1="58.88" x2="69.62" y2="58.88"/><line class="cls-12" x1="59.77" y1="61.53" x2="69.62" y2="61.53"/><rect class="cls-13" x="51.63" y="66.08" width="18.18" height="6.06" rx="0.29"/></svg>