<svg id="OBJECTS" xmlns="http://www.w3.org/2000/svg" viewBox="0 0 7 7"><defs><style>.cls-1{fill:#044b5d;}.cls-2{fill:#fff;}</style></defs><rect class="cls-1" width="6.99" height="6.99" rx="2.74"/><path class="cls-2" d="M1.62,2.69h0l1.23.81h0l0,0L1.65,4.3s0,0,0,0Z"/><path class="cls-2" d="M3.5,2.21H5.13a.24.24,0,0,1,.24.18s0,0,0,0L3.52,3.63s0,0,0,0L1.65,2.42s0,0,0,0a.22.22,0,0,1,.2-.17H3.5Z"/><path class="cls-2" d="M3.5,4.79H1.88a.23.23,0,0,1-.24-.16s0,0,0-.06l1.17-.73.25-.17h0l.29.2a.14.14,0,0,0,.17,0l.28-.19s0,0,0,0l1.43.9s0,0,0,0a.22.22,0,0,1-.2.17H3.5Z"/><path class="cls-2" d="M4.11,3.52l1.27-.83V4.32Z"/></svg>