<svg id="OBJECTS" xmlns="http://www.w3.org/2000/svg" viewBox="0 0 7 7"><defs><style>.cls-1{fill:#044b5d;}.cls-2{fill:#fff;}</style></defs><rect class="cls-1" width="6.99" height="6.99" rx="2.74"/><path class="cls-2" d="M1.8,4.76V2.24s0,0,0,0a.49.49,0,0,1,.48-.42H4.71a.49.49,0,0,1,.49.49V4.71a.49.49,0,0,1-.36.47l-.08,0H2.22a.48.48,0,0,1-.4-.37ZM3.5,2.61a.9.9,0,1,0,.9.9A.9.9,0,0,0,3.5,2.61Zm1.1-.4a.2.2,0,0,0-.2.2.19.19,0,0,0,.19.2.2.2,0,0,0,0-.4Z"/><path class="cls-2" d="M4.2,3.51a.7.7,0,0,1-1.4,0,.7.7,0,0,1,1.4,0Z"/></svg>