<svg id="OBJECTS" xmlns="http://www.w3.org/2000/svg" viewBox="0 0 7 7"><defs><style>.cls-1{fill:#044b5d;}.cls-2{fill:#fff;}</style></defs><rect class="cls-1" width="6.99" height="6.99" rx="2.74"/><path class="cls-2" d="M1.66,4.66a1.53,1.53,0,0,0,1.11-.31.78.78,0,0,1-.56-.26.87.87,0,0,1-.14-.27.74.74,0,0,0,.33,0,.76.76,0,0,1-.6-.75,1,1,0,0,0,.34.09.78.78,0,0,1-.33-.54.72.72,0,0,1,.1-.47,2.14,2.14,0,0,0,1.55.79c0-.08,0-.15,0-.22A.76.76,0,0,1,4,2a.75.75,0,0,1,.74.19s0,0,0,0a1.26,1.26,0,0,0,.42-.16h0a.84.84,0,0,1-.12.23l-.19.18.21,0a1.17,1.17,0,0,1,.2-.06l-.18.21L5,2.73a.08.08,0,0,0,0,0A2.17,2.17,0,0,1,4,4.64a1.9,1.9,0,0,1-.9.34,2.15,2.15,0,0,1-.91-.07,1.94,1.94,0,0,1-.53-.23Z"/></svg>